<?xml version="1.0" encoding="UTF-8"?>
<svg xmlns="http://www.w3.org/2000/svg" width="2048" height="2048" viewBox="0 0 2048 2048">
  <defs>
    <radialGradient id="halo" cx="50%" cy="50%" r="50%">
      <stop offset="0%" stop-color="#EAB308" stop-opacity="0.2"/>
      <stop offset="60%" stop-color="#EAB308" stop-opacity="0.05"/>
      <stop offset="100%" stop-color="#EAB308" stop-opacity="0"/>
    </radialGradient>
    <linearGradient id="arc1" x1="0%" y1="0%" x2="100%" y2="100%">
      <stop offset="0%" stop-color="#FDE68A"/>
      <stop offset="100%" stop-color="#EAB308"/>
    </linearGradient>
    <linearGradient id="arc2" x1="100%" y1="100%" x2="0%" y2="0%">
      <stop offset="0%" stop-color="#FDE68A"/>
      <stop offset="100%" stop-color="#EAB308"/>
    </linearGradient>
  </defs>

  <rect x="0" y="0" width="2048" height="2048" fill="#000000"/>

  <circle cx="1024" cy="1024" r="600" fill="url(#halo)"/>

  <g transform="translate(1024 1024)">
    <g transform="rotate(-30)">
      <path d="M 0 -325 A 325 325 0 0 1 281.5 -162.5" fill="none" stroke="url(#arc1)" stroke-width="55" stroke-linecap="round"/>
      <circle cx="281.5" cy="-162.5" r="30" fill="#FCD34D"/>
      <circle cx="281.5" cy="-162.5" r="14" fill="#FDE68A"/>
      <circle cx="0" cy="-325" r="30" fill="#FCD34D"/>
      <circle cx="0" cy="-325" r="14" fill="#FDE68A"/>
      <path d="M 243 216 A 325 325 0 0 1 -82 315" fill="none" stroke="#EAB308" stroke-width="28" stroke-linecap="round" opacity="0.4"/>
    </g>

    <g transform="rotate(30)">
      <path d="M 0 325 A 325 325 0 0 1 -281.5 162.5" fill="none" stroke="url(#arc2)" stroke-width="55" stroke-linecap="round" opacity="0.9"/>
      <circle cx="-281.5" cy="162.5" r="30" fill="#FCD34D"/>
      <circle cx="-281.5" cy="162.5" r="14" fill="#FDE68A"/>
      <circle cx="0" cy="325" r="30" fill="#FCD34D"/>
      <circle cx="0" cy="325" r="14" fill="#FDE68A"/>
      <path d="M -243 -216 A 325 325 0 0 1 82 -315" fill="none" stroke="#EAB308" stroke-width="28" stroke-linecap="round" opacity="0.4"/>
    </g>

    <circle cx="0" cy="0" r="240" fill="#000000"/>
    <circle cx="0" cy="0" r="232" fill="none" stroke="#EAB308" stroke-width="2" opacity="0.3"/>

    <text x="-40" y="85" text-anchor="middle" font-family="Georgia, 'Times New Roman', serif" font-size="270" font-weight="700" fill="#FFFFFF">B</text>

    <text x="90" y="50" text-anchor="start" font-family="Arial, Helvetica, sans-serif" font-size="62" font-weight="700" fill="#EAB308" letter-spacing="-2">pay</text>
  </g>
</svg>
